<svg width="114" height="29" viewBox="0 0 114 29" fill="none" xmlns="http://www.w3.org/2000/svg">
<path d="M12.3084 7.44C9.62844 7.44 7.66844 8.36 6.34844 9.88V-1.90735e-06H0.348438V28H6.34844V26.12C7.66844 27.64 9.62844 28.56 12.3084 28.56C17.5484 28.56 21.8684 23.96 21.8684 18C21.8684 12.04 17.5484 7.44 12.3084 7.44ZM11.1084 22.88C8.34844 22.88 6.34844 21 6.34844 18C6.34844 15 8.34844 13.12 11.1084 13.12C13.8684 13.12 15.8684 15 15.8684 18C15.8684 21 13.8684 22.88 11.1084 22.88ZM34.9997 13.76V8H30.8797V2.4L24.8797 4.2V8H21.6797V13.76H24.8797V20.84C24.8797 26.44 27.1597 28.8 34.9997 28V22.56C32.3597 22.72 30.8797 22.56 30.8797 20.84V13.76H34.9997ZM43.1875 11.56V8H37.1875V28H43.1875V18.96C43.1875 15 46.7075 14 49.1875 14.4V7.6C46.6675 7.6 43.9875 8.88 43.1875 11.56ZM55.1662 20.4H69.3662C69.5262 19.64 69.6062 18.84 69.6062 18C69.6062 11.96 65.2862 7.44 59.4462 7.44C53.1262 7.44 48.8062 12.04 48.8062 18C48.8062 23.96 53.0462 28.56 59.8862 28.56C63.6862 28.56 66.6462 27.16 68.6062 24.44L63.8062 21.68C63.0062 22.56 61.6062 23.2 59.9662 23.2C57.7662 23.2 55.9262 22.48 55.1662 20.4ZM55.0462 15.92C55.6062 13.88 57.1262 12.76 59.4062 12.76C61.2062 12.76 63.0062 13.6 63.6462 15.92H55.0462ZM83.1294 7.44C80.4894 7.44 78.4894 8.4 77.4094 9.88V8H71.4094V28H77.4094V17.08C77.4094 14.24 78.9294 12.96 81.1294 12.96C83.0494 12.96 84.6094 14.12 84.6094 16.6V28H90.6094V15.72C90.6094 10.32 87.1694 7.44 83.1294 7.44ZM107.65 -1.90735e-06V9.88C106.33 8.36 104.37 7.44 101.69 7.44C96.4497 7.44 92.1297 12.04 92.1297 18C92.1297 23.96 96.4497 28.56 101.69 28.56C104.37 28.56 106.33 27.64 107.65 26.12V28H113.65V-1.90735e-06H107.65ZM102.89 22.88C100.13 22.88 98.1297 21 98.1297 18C98.1297 15 100.13 13.12 102.89 13.12C105.65 13.12 107.65 15 107.65 18C107.65 21 105.65 22.88 102.89 22.88Z" fill="#999999"/>
</svg>
